{
	"asset":{
		"generator":"Khronos glTF Blender I/O v3.6.28",
		"version":"2.0"
	},
	"extensionsUsed":[
		"KHR_materials_clearcoat",
		"KHR_materials_specular",
		"KHR_materials_ior"
	],
	"scene":0,
	"scenes":[
		{
			"name":"Scene",
			"nodes":[
				0
			]
		}
	],
	"nodes":[
		{
			"mesh":0,
			"name":"Object_1_Madeira ",
			"rotation":[
				0.7071068286895752,
				0,
				0,
				0.7071068286895752
			],
			"scale":[
				0.009999999776482582,
				0.009999999776482582,
				0.009999999776482582
			]
		}
	],
	"materials":[
		{
			"doubleSided":true,
			"extensions":{
				"KHR_materials_clearcoat":{
					"clearcoatFactor":1,
					"clearcoatRoughnessFactor":0.029999999329447746,
					"clearcoatTexture":{
						"index":0
					}
				},
				"KHR_materials_specular":{
					"specularColorTexture":{
						"index":1
					},
					"specularColorFactor":[
						1.351550924724717,
						1.185678807220699,
						1.0411837574402256
					]
				},
				"KHR_materials_ior":{
					"ior":1.4500000476837158
				}
			},
			"name":"Madeira_Image_Texture",
			"normalTexture":{
				"index":2
			},
			"pbrMetallicRoughness":{
				"baseColorTexture":{
					"index":3
				},
				"metallicFactor":0,
				"metallicRoughnessTexture":{
					"index":4
				}
			}
		}
	],
	"meshes":[
		{
			"name":"Object_1_Vertex_Group",
			"primitives":[
				{
					"attributes":{
						"POSITION":0,
						"NORMAL":1,
						"TEXCOORD_0":2,
						"TANGENT":3
					},
					"indices":4,
					"material":0
				}
			]
		}
	],
	"textures":[
		{
			"sampler":0,
			"source":0
		},
		{
			"sampler":0,
			"source":1
		},
		{
			"sampler":0,
			"source":2
		},
		{
			"sampler":0,
			"source":3
		},
		{
			"sampler":0,
			"source":4
		}
	],
	"images":[
		{
			"bufferView":5,
			"mimeType":"image/jpeg",
			"name":"compensado_aoMap"
		},
		{
			"bufferView":6,
			"mimeType":"image/png",
			"name":"Image"
		},
		{
			"bufferView":7,
			"mimeType":"image/jpeg",
			"name":"compensado_normalMap"
		},
		{
			"bufferView":8,
			"mimeType":"image/jpeg",
			"name":"compensado_colorMap"
		},
		{
			"bufferView":9,
			"mimeType":"image/png",
			"name":"compensado_roughnessMap"
		}
	],
	"accessors":[
		{
			"bufferView":0,
			"componentType":5126,
			"count":7732,
			"max":[
				18.000001907348633,
				0.75,
				18.751924514770508
			],
			"min":[
				-17.999998092651367,
				-0.75,
				-18.748075485229492
			],
			"type":"VEC3"
		},
		{
			"bufferView":1,
			"componentType":5126,
			"count":7732,
			"type":"VEC3"
		},
		{
			"bufferView":2,
			"componentType":5126,
			"count":7732,
			"type":"VEC2"
		},
		{
			"bufferView":3,
			"componentType":5126,
			"count":7732,
			"type":"VEC4"
		},
		{
			"bufferView":4,
			"componentType":5123,
			"count":26280,
			"type":"SCALAR"
		}
	],
	"bufferViews":[
		{
			"buffer":0,
			"byteLength":92784,
			"byteOffset":0,
			"target":34962
		},
		{
			"buffer":0,
			"byteLength":92784,
			"byteOffset":92784,
			"target":34962
		},
		{
			"buffer":0,
			"byteLength":61856,
			"byteOffset":185568,
			"target":34962
		},
		{
			"buffer":0,
			"byteLength":123712,
			"byteOffset":247424,
			"target":34962
		},
		{
			"buffer":0,
			"byteLength":52560,
			"byteOffset":371136,
			"target":34963
		},
		{
			"buffer":0,
			"byteLength":6670,
			"byteOffset":423696
		},
		{
			"buffer":0,
			"byteLength":773396,
			"byteOffset":430368
		},
		{
			"buffer":0,
			"byteLength":40767,
			"byteOffset":1203764
		},
		{
			"buffer":0,
			"byteLength":166869,
			"byteOffset":1244532
		},
		{
			"buffer":0,
			"byteLength":173734,
			"byteOffset":1411404
		}
	],
	"samplers":[
		{
			"magFilter":9729,
			"minFilter":9987
		}
	],
	"buffers":[
		{
			"byteLength":1585140,
			"uri":"data:application/octet-stream;base64,"
		}
	]
}
